<svg width="40" height="40" viewBox="0 0 40 40" fill="none" xmlns="http://www.w3.org/2000/svg">
<mask id="mask0" mask-type="alpha" maskUnits="userSpaceOnUse" x="0" y="0" width="40" height="40">
<path d="M0 0H40V40H0V0Z" fill="white"/>
</mask>
<g mask="url(#mask0)">
<path fill-rule="evenodd" clip-rule="evenodd" d="M40 20C40 31.0457 31.0456 40 19.9997 40C8.95442 40 0 31.0457 0 20C0 8.95497 8.95373 0 19.9997 0C31.0456 0 40.0007 8.95427 40.0007 20" fill="#335A9F"/>
</g>
<mask id="mask1" mask-type="alpha" maskUnits="userSpaceOnUse" x="13" y="6" width="27" height="34">
<path d="M13.0958 6.35095H39.9994V39.6398H13.0951L13.0958 6.35095Z" fill="white"/>
</mask>
<g mask="url(#mask1)">
<path fill-rule="evenodd" clip-rule="evenodd" d="M39.9751 20.9863C40.1526 17.4741 39.3964 13.9775 37.7834 10.8524L29.2915 6.35095L26.1797 10.5367L20.9714 16.4195L21.9563 26.634L13.0951 30.5728L19.0566 34.3537L18.658 36.69L23.7703 39.6405C32.6531 37.9455 39.4513 30.3788 39.9667 21.1303C39.9688 21.083 39.9737 21.035 39.9751 20.987" fill="#003087"/>
</g>
<path fill-rule="evenodd" clip-rule="evenodd" d="M25.8146 30.0561C25.8146 27.7615 22.9747 25.9017 19.4712 25.9017C15.9671 25.9017 13.1265 27.7615 13.1265 30.0561C13.1265 32.1691 16.4421 33.7772 18.5218 34.0415V36.1141C18.5218 36.3724 18.6244 36.6201 18.807 36.8027C18.9896 36.9853 19.2373 37.0879 19.4955 37.0879C19.7538 37.0879 20.0015 36.9853 20.1841 36.8027C20.3667 36.6201 20.4693 36.3724 20.4693 36.1141V34.0874C22.5796 33.6374 25.8146 32.0036 25.8146 30.0561ZM26.1895 5.58728C23.7251 5.58728 23.8775 6.83715 24.4888 8.77281L24.5716 9.27707C24.8498 10.9916 24.2997 12.77 23.0122 13.9357C22.734 14.1889 22.4147 14.4198 22.0419 14.6243C22.0336 14.6292 22.0231 14.6236 22.0231 14.6146V8.19065C22.0231 7.80394 21.7463 7.44783 21.361 7.41444C21.2603 7.40546 21.1588 7.41754 21.0631 7.44992C20.9673 7.4823 20.8793 7.53426 20.8047 7.6025C20.7301 7.67074 20.6706 7.75376 20.6298 7.84628C20.5891 7.9388 20.5681 8.03879 20.5681 8.13988V25.0246C20.5681 25.0316 20.5729 25.0364 20.5785 25.0371C21.0779 25.0935 21.5571 25.186 22.0092 25.3153C22.0162 25.3174 22.0231 25.3132 22.0231 25.3056V16.6295C22.0231 16.6261 22.0252 16.6261 22.028 16.6247C22.7409 16.2908 23.7467 15.9034 24.9097 15.8123C25.2345 15.7866 25.5669 15.8992 25.5078 16.3771L25.5064 16.3882C24.7379 20.1301 22.4474 22.8427 26.1895 22.8427C30.5902 22.8427 34.1569 18.9797 34.1569 14.2147C34.1569 9.45026 30.5902 5.58728 26.1895 5.58728ZM13.1508 5.58728C15.6158 5.58728 15.4628 6.83715 14.8521 8.77281L14.7693 9.27707C14.4911 10.9916 15.0406 12.77 16.3287 13.9357C16.607 14.1889 16.9262 14.4198 17.299 14.6243C17.3067 14.6292 17.3171 14.6236 17.3171 14.6146V8.19065C17.3171 7.80394 17.5953 7.44783 17.98 7.41444C18.4112 7.37619 18.7729 7.71561 18.7729 8.13988V25.0246C18.773 25.0262 18.7728 25.0277 18.7722 25.0292C18.7717 25.0306 18.7709 25.032 18.7699 25.0332C18.7689 25.0343 18.7676 25.0353 18.7662 25.036C18.7648 25.0366 18.7633 25.037 18.7617 25.0371C18.263 25.0935 17.7831 25.186 17.3317 25.3153C17.3248 25.3174 17.3178 25.3132 17.3178 25.3056V16.6295C17.3178 16.6261 17.3157 16.6261 17.3129 16.6247C16.5993 16.2908 15.5935 15.9034 14.4313 15.8123C14.1065 15.7866 13.7733 15.8992 13.8331 16.3771C13.8331 16.384 13.8331 16.3875 13.8345 16.3882C14.6031 20.1301 16.8928 22.8427 13.1508 22.8427C8.75079 22.8427 5.18335 18.9797 5.18335 14.2147C5.18335 9.45026 8.75079 5.58728 13.1508 5.58728Z" fill="white"/>
</svg>
