<svg width="40" height="40" viewBox="0 0 40 40" fill="none" xmlns="http://www.w3.org/2000/svg">
<mask id="mask0" mask-type="alpha" maskUnits="userSpaceOnUse" x="0" y="0" width="40" height="40">
<path d="M0 0H40V40H0V0Z" fill="white"/>
</mask>
<g mask="url(#mask0)">
<path fill-rule="evenodd" clip-rule="evenodd" d="M40 20C40 31.0457 31.0456 40 19.9997 40C8.95442 40 0 31.0457 0 20C0 8.95497 8.95442 0 19.9997 0C31.0449 0 40.0007 8.95427 40.0007 20" fill="#335A9F"/>
</g>
<mask id="mask1" mask-type="alpha" maskUnits="userSpaceOnUse" x="11" y="7" width="29" height="32">
<path d="M11.3965 7.43311H40V38.9247H11.3965V7.43311Z" fill="white"/>
</mask>
<g mask="url(#mask1)">
<path fill-rule="evenodd" clip-rule="evenodd" d="M39.9976 19.9347C39.9967 19.649 39.9897 19.3633 39.9768 19.0778L39.9587 18.7732C39.9462 18.5673 39.9302 18.3621 39.9114 18.1569C39.901 18.0429 39.8905 17.9288 39.8787 17.8161C39.8704 17.7438 39.8606 17.6728 39.8509 17.6019C39.8349 17.464 39.8175 17.3263 39.7987 17.1887L39.7959 17.1665C39.7841 17.0823 39.7751 16.9968 39.7612 16.9126L22.7642 7.43323L12.2302 11.6468L11.3955 21.4781L19.4944 27.7497L19.347 34.8879L26.4672 38.9248C33.6042 36.4863 38.9202 30.1284 39.8495 22.4157C39.9079 21.8592 39.9538 21.3035 39.9803 20.752C39.9837 20.6581 39.9858 20.5635 39.9872 20.4696C39.9928 20.3166 39.999 20.1635 39.999 20.0091V19.9973C39.999 19.9764 39.999 19.9556 39.9976 19.9347Z" fill="#003087"/>
</g>
<mask id="mask2" mask-type="alpha" maskUnits="userSpaceOnUse" x="9" y="7" width="22" height="29">
<path d="M9.38937 7.21338H30.2835V35.0047H9.38867L9.38937 7.21338Z" fill="white"/>
</mask>
<g mask="url(#mask2)">
<path fill-rule="evenodd" clip-rule="evenodd" d="M24.0416 27.226C25.275 26.6839 26.3915 25.9077 27.3294 24.9405C28.2866 23.9573 29.0402 22.7947 29.5469 21.5195C30.0536 20.2443 30.3034 18.8815 30.282 17.5095C30.2638 16.1374 29.9747 14.7825 29.4312 13.5225C28.8877 12.2625 28.1007 11.1223 27.1152 10.1674C26.1322 9.2101 24.9697 8.45644 23.6946 7.94975C22.4194 7.44305 21.0567 7.19333 19.6847 7.21491C18.3126 7.2331 16.9576 7.52223 15.6976 8.06569C14.4376 8.60914 13.2974 9.39621 12.3425 10.3817C11.3853 11.3646 10.6316 12.5269 10.1249 13.8019C9.61823 15.0769 9.36846 16.4395 9.38995 17.8113C9.40814 19.1834 9.69728 20.5383 10.2407 21.7983C10.7842 23.0583 11.5713 24.1985 12.5568 25.1534C13.522 26.0936 14.6606 26.8377 15.9093 27.3443C16.6222 27.6329 17.7267 27.8771 18.48 28.0023L18.5148 30.639L16.7307 30.6279C16.4365 30.655 15.9058 30.9499 15.9162 31.6642C15.9232 32.1601 15.7736 32.3201 16.1854 32.5316C16.3676 32.6261 16.6132 32.7159 16.833 32.7124L18.5857 32.7075L18.6344 33.3585C18.6414 33.8545 18.5718 34.2975 18.8368 34.6766C18.9766 34.8769 19.202 35.007 19.4225 35.0035C20.1375 34.9937 20.3962 34.5416 20.3865 33.8266L20.3503 32.6067L22.108 32.5928C22.823 32.5823 23.1221 32.252 23.1116 31.5376C23.1012 30.8226 22.6665 30.8018 21.9515 30.8122L20.3308 30.8338L20.3336 28.0495C21.4896 27.955 22.9788 27.6934 24.0409 27.2253L24.0416 27.226ZM16.2431 24.3862C12.4782 22.4477 10.9987 17.8245 12.9372 14.0596C14.8757 10.2954 19.4997 8.81533 23.264 10.7538C27.0289 12.6929 28.5084 17.3161 26.5699 21.0803C24.6307 24.8445 20.0074 26.3246 16.2431 24.3862Z" fill="white"/>
</g>
</svg>
