<svg width="40" height="40" viewBox="0 0 40 40" fill="none" xmlns="http://www.w3.org/2000/svg">
<mask id="mask0" mask-type="alpha" maskUnits="userSpaceOnUse" x="0" y="0" width="40" height="40">
<path d="M0 0H40V40H0V0Z" fill="white"/>
</mask>
<g mask="url(#mask0)">
<path fill-rule="evenodd" clip-rule="evenodd" d="M40 20C40 31.0457 31.0456 40 19.9997 40C8.95442 40 0 31.0457 0 20C0 8.95497 8.95373 0 19.9997 0C31.0456 0 40.0007 8.95427 40.0007 20" fill="#335A9F"/>
</g>
<path fill-rule="evenodd" clip-rule="evenodd" d="M23.6414 39.6634C32.2105 38.0859 38.8669 31.0492 39.8657 22.2904C39.8865 22.0949 39.9074 21.8995 39.9227 21.7027L39.9338 21.5496C39.9547 21.2846 39.97 21.0189 39.9811 20.7519L39.9846 20.603C39.9922 20.3763 39.9971 20.1495 39.9985 19.9214C39.9908 17.7482 39.6283 15.5908 38.9253 13.5343L27.2346 7.28638L16.2061 35.495L23.64 39.6634H23.6414Z" fill="#003087"/>
<path fill-rule="evenodd" clip-rule="evenodd" d="M15.2976 17.9627L15.073 17.3173C15.3971 17.2039 15.7324 17.0703 16.069 16.9208L16.3472 17.5461C15.9932 17.7033 15.6405 17.8431 15.2976 17.9634V17.9627ZM15.1384 28.2274L15.0285 27.5527C15.3623 27.4977 15.7059 27.4358 16.0565 27.3656L16.1907 28.0361C15.8318 28.1077 15.4813 28.1717 15.1384 28.2274ZM14.7155 23.4616C14.7155 23.8719 14.6536 24.2642 14.5325 24.6259L13.8843 24.4082C13.9817 24.1161 14.0318 23.7982 14.0318 23.4616L14.7155 23.4546V23.4616ZM13.3592 28.4624L13.291 27.7815C13.6263 27.7481 13.9726 27.7078 14.3288 27.6584L14.422 28.3359C14.0568 28.3859 13.7028 28.4277 13.3585 28.4618L13.3592 28.4624ZM13.6026 24.9966L14.1778 25.3652C13.9719 25.6852 13.7062 25.9801 13.3863 26.2423L12.9537 25.713C13.2058 25.5095 13.4246 25.2678 13.6019 24.9966H13.6026ZM13.4454 19.8678C13.4565 19.8838 13.7334 20.2621 14.0255 20.8499L13.4134 21.1545C13.1491 20.6231 12.8966 20.2754 12.8938 20.2719L13.4454 19.8678ZM14.6431 22.6596L13.9699 22.7779C13.9091 22.4441 13.8173 22.1167 13.6958 21.8L14.3357 21.5586C14.4776 21.9342 14.5805 22.3042 14.6431 22.6596ZM14.3698 17.5363L14.5506 18.1957C14.1709 18.3 13.7953 18.38 13.435 18.4343L13.3348 17.7575C13.668 17.7081 14.0165 17.6337 14.3698 17.5363ZM12.3277 18.5191C12.0376 18.5191 11.7545 18.4997 11.4847 18.4628L11.5786 17.7853C11.9034 17.8306 12.2421 17.8466 12.6142 17.8285L12.6462 18.5115C12.5363 18.5164 12.4306 18.5184 12.3277 18.5184V18.5191ZM11.564 28.5786L11.5445 27.8942C11.877 27.8845 12.2247 27.8678 12.5864 27.8413L12.6351 28.523C12.2637 28.5501 11.9069 28.5675 11.564 28.5786ZM10.6925 14.8766L10.1465 14.4656C10.3433 14.2034 10.5408 13.9328 10.7363 13.6532L11.2962 14.0448C11.0959 14.3313 10.8942 14.6082 10.6925 14.8766ZM10.6904 18.2882C9.97604 18.0677 9.62062 17.7694 9.58306 17.736L10.031 17.2199C10.0338 17.222 10.3162 17.4571 10.8914 17.6344L10.6904 18.2882ZM9.7639 28.5647L9.79729 27.8817C10.1367 27.8977 10.4866 27.906 10.8357 27.906L10.8385 28.5897C10.4754 28.5897 10.1152 28.5814 9.7639 28.5647ZM8.49245 17.4904L7.99444 17.0224C8.21215 16.79 8.43889 16.5424 8.67051 16.2788L9.18382 16.7309C8.94734 17.0001 8.71502 17.2533 8.49245 17.4904ZM9.03845 28.5181C8.67329 28.4882 8.3123 28.4485 7.96731 28.3999L8.06191 27.7231C8.39507 27.7697 8.74215 27.808 9.09409 27.8365L9.03845 28.5181ZM7.28777 18.7041L6.81619 18.2082C7.03529 17.9996 7.27525 17.7652 7.5326 17.503L8.02087 17.9829C7.75796 18.25 7.51173 18.4906 7.28777 18.7035V18.7041ZM7.24465 28.2816C6.55606 28.1529 6.18603 28.0305 6.17003 28.025L6.38634 27.376C6.38982 27.3774 6.73342 27.4901 7.37123 27.6104L7.24465 28.2823V28.2816ZM5.99684 19.8476L5.57395 19.31C5.57673 19.3072 5.86399 19.0804 6.32792 18.6617L6.78698 19.1688C6.30288 19.6056 6.00866 19.8379 5.99684 19.8476ZM9.73956 14.9949L10.2772 15.4185C10.0588 15.6953 9.8418 15.961 9.62827 16.2148L9.10522 15.7739C9.31389 15.5263 9.52672 15.2661 9.73956 14.9949ZM11.6474 12.2621L12.231 12.6182C12.0502 12.9138 11.8665 13.2025 11.6801 13.4821L11.1105 13.1037C11.292 12.8304 11.4715 12.5501 11.6474 12.2621ZM25.2495 29.2241C25.2711 29.1803 25.3006 29.141 25.3364 29.1079C25.4178 29.0815 25.4985 29.0543 25.5792 29.0251C29.5959 27.5923 32.5263 23.1305 32.5263 17.8486C32.5263 17.7923 32.5263 17.7353 32.5249 17.6796L32.5235 17.5906C32.5235 17.5697 32.5235 17.5482 32.5221 17.5266C32.4365 13.5482 30.7665 10.0601 28.161 8.03817C27.4205 7.45957 26.5927 7.00245 25.7085 6.68397C25.1662 6.46103 24.6108 6.27126 24.0455 6.11573C21.9303 5.53148 19.7742 5.47166 17.595 5.61147C15.7143 5.73249 14.0505 6.37794 12.5377 7.46784C10.7084 8.58973 8.49315 11.7892 8.08138 14.1435C7.97705 14.6019 7.92697 15.0505 8.08903 15.5103C8.26362 16.002 8.13981 16.4186 7.75657 16.7907C6.86936 17.6588 5.99199 18.5368 5.12463 19.4247C4.71009 19.8476 4.68365 20.0264 5.005 20.5202C5.2074 20.8325 5.46405 21.1149 5.72488 21.3826C6.07961 21.7464 6.11091 21.8549 5.87095 22.3077C5.75688 22.5219 5.62959 22.7313 5.53361 22.9545C5.39102 23.2856 5.42163 23.5986 5.71445 23.7961C5.84313 23.8831 5.86469 24.009 5.79652 24.1495C5.78609 24.1703 5.78261 24.1954 5.7694 24.2148C5.4724 24.6781 5.59969 25.0662 5.94607 25.4487C6.03788 25.5489 6.07613 25.7589 6.04553 25.898C5.98188 26.1733 5.88446 26.4396 5.75549 26.6909C5.53987 27.1215 5.51205 27.5645 5.60595 28.0222C5.67689 28.363 5.91477 28.5835 6.2062 28.74C6.74246 29.0258 7.32394 29.1434 7.92697 29.1754C9.7326 29.2679 11.4054 29.7582 12.8744 30.846C13.5838 31.3719 14.1917 32.0048 14.5965 32.7887C15.0723 33.7081 15.7929 35.1917 15.8026 35.214H26.964C26.6273 34.4558 26.4493 34.1491 26.1182 33.3868C25.84 32.7483 25.5298 32.1202 25.3044 31.463C25.1031 30.8724 25.0412 30.2432 25.1236 29.6247C25.1434 29.4852 25.186 29.3498 25.2495 29.2241Z" fill="white"/>
</svg>
